# xmcd CD database file
#
# Track frame offsets:
#	150
#	6062
#	18530
#	29190
#	52470
#	67090
#	83520
#	97927
#	117127
#	127535
#	139727
#
# Disc length: 2054 seconds
#
# Revision: 2
# Processed by: cddbd v1.5.2PL0 Copyright (c) Steve Scherf et al.
# Submitted via: CDex 1.70beta3
#
DISCID=8e08040b
DTITLE=戸川 純 - JUN TOGAWA HISTORY DISC ONE
DYEAR=1900
DGENRE=Blues
TTITLE0=ブレヘメン
TTITLE1=カフェ・ド・サヰコ
TTITLE2=夢の山獄地帯
TTITLE3=曙
TTITLE4=銀輪は歌う
TTITLE5=マロニエ読本
TTITLE6=昆虫軍
TTITLE7=玉姫様
TTITLE8=隣の印度人
TTITLE9=踊れない
TTITLE10=森の人々
EXTD=
EXTT0=
EXTT1=
EXTT2=
EXTT3=
EXTT4=
EXTT5=
EXTT6=
EXTT7=
EXTT8=
EXTT9=
EXTT10=
PLAYORDER=
